2026-03-10T13:41:19+00:00 mp4 cmd: ffmpeg -y -i '/Users/rllngr/Sites/Manuelle Gautrand/backend/storage/content/1_projects/1_residential/1_tirane-jardins/blue_1.mp4' -c:v libx264 -preset slow -crf 28 -vf "scale=1920:-2" -c:a aac -b:a '96k' -movflags +faststart '/Users/rllngr/Sites/Manuelle Gautrand/backend/storage/content/1_projects/1_residential/1_tirane-jardins/blue_1.compressed.tmp.mp4' 2>&1 | code=127 | out=sh: ffmpeg: command not found
2026-03-10T13:41:19+00:00 webm cmd: ffmpeg -y -i '/Users/rllngr/Sites/Manuelle Gautrand/backend/storage/content/1_projects/1_residential/1_tirane-jardins/blue_1.mp4' -c:v libvpx-vp9 -b:v 0 -crf 33 -vf "scale=1920:-2" -c:a libopus -b:a '64k' '/Users/rllngr/Sites/Manuelle Gautrand/backend/storage/content/1_projects/1_residential/1_tirane-jardins/blue_1.webm.tmp' 2>&1 | code=127 | out=sh: ffmpeg: command not found
2026-03-10T13:41:19+00:00 poster cmd: ffmpeg -y -i '/Users/rllngr/Sites/Manuelle Gautrand/backend/storage/content/1_projects/1_residential/1_tirane-jardins/blue_1.mp4' -ss 00:00:01.000 -vframes 1 -vf "scale=1920:-2" '/Users/rllngr/Sites/Manuelle Gautrand/backend/storage/content/1_projects/1_residential/1_tirane-jardins/blue_1-poster.jpg' 2>&1 | code=127 | out=sh: ffmpeg: command not found
2026-03-10T13:58:00+00:00 mp4 cmd: /opt/homebrew/bin/ffmpeg -y -i '/Users/rllngr/Sites/Manuelle Gautrand/backend/storage/content/1_projects/1_residential/1_tirane-jardins/pink_1.mp4' -c:v libx264 -preset slow -crf 28 -vf "scale=1920:-2" -c:a aac -b:a '96k' -movflags +faststart '/Users/rllngr/Sites/Manuelle Gautrand/backend/storage/content/1_projects/1_residential/1_tirane-jardins/pink_1.compressed.tmp.mp4' 2>&1 | code=0 | out=[libx264 @ 0xc3ec3d180] frame I:4     Avg QP:19.97  size: 12294
[libx264 @ 0xc3ec3d180] frame P:101   Avg QP:24.44  size:  2307
[libx264 @ 0xc3ec3d180] frame B:195   Avg QP:22.08  size:   572
[libx264 @ 0xc3ec3d180] consecutive B-frames: 11.7%  4.7%  1.0% 82.7%
[libx264 @ 0xc3ec3d180] mb I  I16..4: 32.6% 66.6%  0.8%
[libx264 @ 0xc3ec3d180] mb P  I16..4:  1.8%  3.0%  0.1%  P16..4:  1.8%  0.2%  0.2%  0.0%  0.0%    skip:92.9%
[libx264 @ 0xc3ec3d180] mb B  I16..4:  0.1%  0.2%  0.0%  B16..8:  2.3%  0.1%  0.0%  direct: 0.0%  skip:97.3%  L0:40.3% L1:58.4% BI: 1.3%
[libx264 @ 0xc3ec3d180] 8x8 transform intra:63.4% inter:78.3%
[libx264 @ 0xc3ec3d180] direct mvs  spatial:95.9% temporal:4.1%
[libx264 @ 0xc3ec3d180] coded y,uvDC,uvAC intra: 4.0% 17.2% 5.1% inter: 0.1% 0.2% 0.0%
[libx264 @ 0xc3ec3d180] i16 v,h,dc,p: 46% 17%  5% 32%
[libx264 @ 0xc3ec3d180] i8 v,h,dc,ddl,ddr,vr,hd,vl,hu: 34% 18% 37%  2%  2%  2%  2%  2%  1%
[libx264 @ 0xc3ec3d180] i4 v,h,dc,ddl,ddr,vr,hd,vl,hu: 24% 13% 35%  5%  6%  6%  4%  5%  2%
[libx264 @ 0xc3ec3d180] i8c dc,h,v,p: 74% 11%  8%  6%
[libx264 @ 0xc3ec3d180] Weighted P-Frames: Y:0.0% UV:0.0%
[libx264 @ 0xc3ec3d180] ref P L0: 79.5%  3.3% 12.5%  2.5%  2.0%  0.1%
[libx264 @ 0xc3ec3d180] ref B L0: 78.8% 16.3%  2.2%  2.7%
[libx264 @ 0xc3ec3d180] ref B L1: 94.0%  6.0%
[libx264 @ 0xc3ec3d180] kb/s:314.94
[aac @ 0xc3ed78380] Qavg: 65511.207
2026-03-10T13:58:00+00:00 webm cmd: /opt/homebrew/bin/ffmpeg -y -i '/Users/rllngr/Sites/Manuelle Gautrand/backend/storage/content/1_projects/1_residential/1_tirane-jardins/pink_1.mp4' -c:v libvpx-vp9 -b:v 0 -crf 33 -vf "scale=1920:-2" -c:a libopus -b:a '64k' '/Users/rllngr/Sites/Manuelle Gautrand/backend/storage/content/1_projects/1_residential/1_tirane-jardins/pink_1.webm.tmp' 2>&1 | code=234 | out=    major_brand     : mp42
    minor_version   : 0
    compatible_brands: mp42mp41
    creation_time   : 2024-03-14T20:17:20.000000Z
  Duration: 00:00:10.00, start: 0.000000, bitrate: 1260 kb/s
  Stream #0:0[0x1](eng): Video: h264 (Main) (avc1 / 0x31637661), yuv420p(tv, bt709, progressive), 1000x1000, 893 kb/s, 30 fps, 30 tbr, 30k tbn (default)
    Metadata:
      creation_time   : 2024-03-14T20:17:20.000000Z
      handler_name    : ?Mainconcept Video Media Handler
      vendor_id       : [0][0][0][0]
      encoder         : AVC Coding
  Stream #0:1[0x2](eng): Audio: aac (LC) (mp4a / 0x6134706D), 48000 Hz, stereo, fltp, 316 kb/s (default)
    Metadata:
      creation_time   : 2024-03-14T20:17:20.000000Z
      handler_name    : #Mainconcept MP4 Sound Media Handler
      vendor_id       : [0][0][0][0]
[AVFormatContext @ 0xaab023700] Unable to choose an output format for '/Users/rllngr/Sites/Manuelle Gautrand/backend/storage/content/1_projects/1_residential/1_tirane-jardins/pink_1.webm.tmp'; use a standard extension for the filename or specify the format manually.
[out#0 @ 0xaaac40300] Error initializing the muxer for /Users/rllngr/Sites/Manuelle Gautrand/backend/storage/content/1_projects/1_residential/1_tirane-jardins/pink_1.webm.tmp: Invalid argument
Error opening output file /Users/rllngr/Sites/Manuelle Gautrand/backend/storage/content/1_projects/1_residential/1_tirane-jardins/pink_1.webm.tmp.
Error opening output files: Invalid argument
2026-03-10T13:58:00+00:00 poster cmd: /opt/homebrew/bin/ffmpeg -y -i '/Users/rllngr/Sites/Manuelle Gautrand/backend/storage/content/1_projects/1_residential/1_tirane-jardins/pink_1.mp4' -ss 00:00:01.000 -vframes 1 -vf "scale=1920:-2" '/Users/rllngr/Sites/Manuelle Gautrand/backend/storage/content/1_projects/1_residential/1_tirane-jardins/pink_1-poster.jpg' 2>&1 | code=0 | out=  Stream #0:0 -> #0:0 (h264 (native) -> mjpeg (native))
Press [q] to stop, [?] for help
Output #0, image2, to '/Users/rllngr/Sites/Manuelle Gautrand/backend/storage/content/1_projects/1_residential/1_tirane-jardins/pink_1-poster.jpg':
  Metadata:
    major_brand     : mp42
    minor_version   : 0
    compatible_brands: mp42mp41
    encoder         : Lavf62.3.100
  Stream #0:0(eng): Video: mjpeg, yuv420p(pc, bt709, progressive), 1920x1920, q=2-31, 200 kb/s, 30 fps, 30 tbn (default)
    Metadata:
      encoder         : Lavc62.11.100 mjpeg
      creation_time   : 2024-03-14T20:17:20.000000Z
      handler_name    : ?Mainconcept Video Media Handler
      vendor_id       : [0][0][0][0]
    Side data:
      cpb: bitrate max/min/avg: 0/0/200000 buffer size: 0 vbv_delay: N/A
[image2 @ 0xbf0c1f700] The specified filename '/Users/rllngr/Sites/Manuelle Gautrand/backend/storage/content/1_projects/1_residential/1_tirane-jardins/pink_1-poster.jpg' does not contain an image sequence pattern or a pattern is invalid.
[image2 @ 0xbf0c1f700] Use a pattern such as %03d for an image sequence or use the -update option (with -frames:v 1 if needed) to write a single image.
[out#0/image2 @ 0xbf1040300] video:47KiB audio:0KiB subtitle:0KiB other streams:0KiB global headers:0KiB muxing overhead: unknown
frame=    1 fps=0.0 q=5.8 Lsize=N/A time=00:00:00.03 bitrate=N/A speed=1.11x elapsed=0:00:00.03
2026-03-10T14:03:10+00:00 mp4 cmd: /opt/homebrew/bin/ffmpeg -y -i '/Users/rllngr/Sites/Manuelle Gautrand/backend/storage/content/1_projects/1_residential/1_tirane-jardins/red_1.mp4' -c:v libx264 -preset slow -crf 28 -vf "scale=1920:-2" -c:a aac -b:a '96k' -movflags +faststart '/Users/rllngr/Sites/Manuelle Gautrand/backend/storage/content/1_projects/1_residential/1_tirane-jardins/red_1.compressed.tmp.mp4' 2>&1 | code=0 | out=[libx264 @ 0xc6903d500] frame I:4     Avg QP:21.50  size: 11810
[libx264 @ 0xc6903d500] frame P:113   Avg QP:25.48  size:  2388
[libx264 @ 0xc6903d500] frame B:183   Avg QP:25.32  size:   837
[libx264 @ 0xc6903d500] consecutive B-frames: 13.3% 12.7% 10.0% 64.0%
[libx264 @ 0xc6903d500] mb I  I16..4: 32.5% 66.8%  0.7%
[libx264 @ 0xc6903d500] mb P  I16..4:  2.4%  3.7%  0.0%  P16..4:  1.9%  0.2%  0.2%  0.0%  0.0%    skip:91.5%
[libx264 @ 0xc6903d500] mb B  I16..4:  0.2%  0.1%  0.0%  B16..8:  2.6%  0.2%  0.0%  direct: 0.0%  skip:96.8%  L0:43.6% L1:53.4% BI: 3.0%
[libx264 @ 0xc6903d500] 8x8 transform intra:61.2% inter:80.8%
[libx264 @ 0xc6903d500] direct mvs  spatial:95.6% temporal:4.4%
[libx264 @ 0xc6903d500] coded y,uvDC,uvAC intra: 3.8% 17.8% 5.4% inter: 0.1% 0.3% 0.0%
[libx264 @ 0xc6903d500] i16 v,h,dc,p: 38% 25%  3% 33%
[libx264 @ 0xc6903d500] i8 v,h,dc,ddl,ddr,vr,hd,vl,hu: 31% 21% 38%  1%  2%  2%  2%  1%  1%
[libx264 @ 0xc6903d500] i4 v,h,dc,ddl,ddr,vr,hd,vl,hu: 27% 15% 32%  5%  7%  4%  5%  3%  3%
[libx264 @ 0xc6903d500] i8c dc,h,v,p: 68% 17%  8%  8%
[libx264 @ 0xc6903d500] Weighted P-Frames: Y:0.0% UV:0.0%
[libx264 @ 0xc6903d500] ref P L0: 81.3%  3.0%  9.9%  3.3%  2.2%  0.4%
[libx264 @ 0xc6903d500] ref B L0: 81.4% 14.4%  2.0%  2.2%
[libx264 @ 0xc6903d500] ref B L1: 94.1%  5.9%
[libx264 @ 0xc6903d500] kb/s:376.23
[aac @ 0xc691e4700] Qavg: 65511.207
2026-03-10T14:03:20+00:00 webm cmd: /opt/homebrew/bin/ffmpeg -y -i '/Users/rllngr/Sites/Manuelle Gautrand/backend/storage/content/1_projects/1_residential/1_tirane-jardins/red_1.mp4' -c:v libvpx-vp9 -b:v 0 -crf 33 -vf "scale=1920:-2" -c:a libopus -b:a '64k' '/Users/rllngr/Sites/Manuelle Gautrand/backend/storage/content/1_projects/1_residential/1_tirane-jardins/red_1.tmp.webm' 2>&1 | code=0 | out=    major_brand     : mp42
    minor_version   : 0
    compatible_brands: mp42mp41
    encoder         : Lavf62.3.100
  Stream #0:0(eng): Video: vp9, yuv420p(tv, bt709, progressive), 1920x1920, q=2-31, 30 fps, 1k tbn (default)
    Metadata:
      encoder         : Lavc62.11.100 libvpx-vp9
      creation_time   : 2024-03-14T20:17:22.000000Z
      handler_name    : ?Mainconcept Video Media Handler
      vendor_id       : [0][0][0][0]
    Side data:
      cpb: bitrate max/min/avg: 0/0/0 buffer size: 0 vbv_delay: N/A
  Stream #0:1(eng): Audio: opus, 48000 Hz, stereo, flt, 64 kb/s (default)
    Metadata:
      encoder         : Lavc62.11.100 libopus
      creation_time   : 2024-03-14T20:17:22.000000Z
      handler_name    : #Mainconcept MP4 Sound Media Handler
      vendor_id       : [0][0][0][0]
frame=   11 fps=0.0 q=22.0 size=       1KiB time=00:00:00.36 bitrate=  20.2kbits/s speed=0.638x elapsed=0:00:00.57    frame=   24 fps= 21 q=33.0 size=       1KiB time=00:00:00.80 bitrate=   9.2kbits/s speed=0.697x elapsed=0:00:01.14    frame=   36 fps= 21 q=33.0 size=       1KiB time=00:00:01.20 bitrate=   6.2kbits/s speed=0.696x elapsed=0:00:01.72    frame=   60 fps= 26 q=33.0 size=       1KiB time=00:00:02.00 bitrate=   3.7kbits/s speed=0.87x elapsed=0:00:02.29    frame=   77 fps= 27 q=28.0 size=       1KiB time=00:00:02.56 bitrate=   2.9kbits/s speed=0.893x elapsed=0:00:02.87    frame=   95 fps= 28 q=31.0 size=       1KiB time=00:00:03.16 bitrate=   2.3kbits/s speed=0.918x elapsed=0:00:03.44    frame=  113 fps= 28 q=22.0 size=       1KiB time=00:00:03.76 bitrate=   2.0kbits/s speed=0.938x elapsed=0:00:04.01    frame=  133 fps= 29 q=28.0 size=     216KiB time=00:00:04.43 bitrate= 399.3kbits/s speed=0.965x elapsed=0:00:04.59    frame=  148 fps= 29 q=33.0 size=     216KiB time=00:00:04.93 bitrate= 358.9kbits/s speed=0.955x elapsed=0:00:05.16    frame=  163 fps= 28 q=31.0 size=     216KiB time=00:00:05.43 bitrate= 325.8kbits/s speed=0.946x elapsed=0:00:05.74    frame=  180 fps= 28 q=33.0 size=     216KiB time=00:00:06.00 bitrate= 295.1kbits/s speed=0.95x elapsed=0:00:06.31    frame=  198 fps= 29 q=33.0 size=     216KiB time=00:00:06.60 bitrate= 268.2kbits/s speed=0.958x elapsed=0:00:06.89    frame=  216 fps= 29 q=33.0 size=     216KiB time=00:00:07.20 bitrate= 245.9kbits/s speed=0.965x elapsed=0:00:07.45    frame=  234 fps= 29 q=33.0 size=     216KiB time=00:00:07.80 bitrate= 227.0kbits/s speed=0.971x elapsed=0:00:08.03    frame=  248 fps= 29 q=33.0 size=     216KiB time=00:00:08.26 bitrate= 214.2kbits/s speed=0.96x elapsed=0:00:08.60    frame=  265 fps= 29 q=22.0 size=     256KiB time=00:00:08.83 bitrate= 237.4kbits/s speed=0.962x elapsed=0:00:09.18    frame=  276 fps= 28 q=33.0 size=     256KiB time=N/A bitrate=N/A speed=N/A elapsed=0:00:09.75    [out#0/webm @ 0xb9d040300] video:471KiB audio:1KiB subtitle:0KiB other streams:0KiB global headers:0KiB muxing overhead: 1.251724%
frame=  300 fps= 29 q=33.0 Lsize=     478KiB time=00:00:10.00 bitrate= 391.7kbits/s speed=0.975x elapsed=0:00:10.26
2026-03-10T14:03:20+00:00 poster cmd: /opt/homebrew/bin/ffmpeg -y -i '/Users/rllngr/Sites/Manuelle Gautrand/backend/storage/content/1_projects/1_residential/1_tirane-jardins/red_1.mp4' -ss 00:00:01.000 -vframes 1 -vf "scale=1920:-2" '/Users/rllngr/Sites/Manuelle Gautrand/backend/storage/content/1_projects/1_residential/1_tirane-jardins/red_1-poster.jpg' 2>&1 | code=0 | out=  Stream #0:0 -> #0:0 (h264 (native) -> mjpeg (native))
Press [q] to stop, [?] for help
Output #0, image2, to '/Users/rllngr/Sites/Manuelle Gautrand/backend/storage/content/1_projects/1_residential/1_tirane-jardins/red_1-poster.jpg':
  Metadata:
    major_brand     : mp42
    minor_version   : 0
    compatible_brands: mp42mp41
    encoder         : Lavf62.3.100
  Stream #0:0(eng): Video: mjpeg, yuv420p(pc, bt709, progressive), 1920x1920, q=2-31, 200 kb/s, 30 fps, 30 tbn (default)
    Metadata:
      encoder         : Lavc62.11.100 mjpeg
      creation_time   : 2024-03-14T20:17:22.000000Z
      handler_name    : ?Mainconcept Video Media Handler
      vendor_id       : [0][0][0][0]
    Side data:
      cpb: bitrate max/min/avg: 0/0/200000 buffer size: 0 vbv_delay: N/A
[image2 @ 0xbbb017700] The specified filename '/Users/rllngr/Sites/Manuelle Gautrand/backend/storage/content/1_projects/1_residential/1_tirane-jardins/red_1-poster.jpg' does not contain an image sequence pattern or a pattern is invalid.
[image2 @ 0xbbb017700] Use a pattern such as %03d for an image sequence or use the -update option (with -frames:v 1 if needed) to write a single image.
[out#0/image2 @ 0xbbac08780] video:48KiB audio:0KiB subtitle:0KiB other streams:0KiB global headers:0KiB muxing overhead: unknown
frame=    1 fps=0.0 q=5.8 Lsize=N/A time=00:00:00.03 bitrate=N/A speed=1.09x elapsed=0:00:00.03
2026-03-10T14:30:53+00:00 mp4 cmd: /opt/homebrew/bin/ffmpeg -y -i '/Users/rllngr/Sites/Manuelle Gautrand/backend/storage/content/1_projects/1_residential/2_casa-lauza-artwork-shelter/sinusoidal.mp4' -c:v libx264 -preset slow -crf 28 -vf "scale=1920:-2" -c:a aac -b:a '96k' -movflags +faststart '/Users/rllngr/Sites/Manuelle Gautrand/backend/storage/content/1_projects/1_residential/2_casa-lauza-artwork-shelter/sinusoidal.compressed.tmp.mp4' 2>&1 | code=0 | out=frame=  451 fps=200 q=-1.0 Lsize=     405KiB time=00:00:07.48 bitrate= 443.6kbits/s speed=3.31x elapsed=0:00:02.25
[libx264 @ 0xb3ac3c700] frame I:2     Avg QP:20.72  size:  9694
[libx264 @ 0xb3ac3c700] frame P:113   Avg QP:24.47  size:  1542
[libx264 @ 0xb3ac3c700] frame B:336   Avg QP:29.84  size:   638
[libx264 @ 0xb3ac3c700] consecutive B-frames:  0.7%  0.0%  0.0% 99.3%
[libx264 @ 0xb3ac3c700] mb I  I16..4: 19.8% 78.0%  2.2%
[libx264 @ 0xb3ac3c700] mb P  I16..4:  0.1%  1.0%  0.0%  P16..4:  4.5%  0.5%  0.2%  0.0%  0.0%    skip:93.7%
[libx264 @ 0xb3ac3c700] mb B  I16..4:  0.0%  0.0%  0.0%  B16..8:  4.6%  0.2%  0.0%  direct: 0.0%  skip:95.2%  L0:48.5% L1:51.4% BI: 0.1%
[libx264 @ 0xb3ac3c700] 8x8 transform intra:81.1% inter:54.5%
[libx264 @ 0xb3ac3c700] direct mvs  spatial:97.6% temporal:2.4%
[libx264 @ 0xb3ac3c700] coded y,uvDC,uvAC intra: 2.3% 13.7% 8.0% inter: 0.0% 0.4% 0.1%
[libx264 @ 0xb3ac3c700] i16 v,h,dc,p: 77% 19%  2%  1%
[libx264 @ 0xb3ac3c700] i8 v,h,dc,ddl,ddr,vr,hd,vl,hu: 29% 11% 58%  0%  0%  0%  0%  0%  1%
[libx264 @ 0xb3ac3c700] i4 v,h,dc,ddl,ddr,vr,hd,vl,hu: 30% 11% 38%  6%  4%  2%  4%  2%  4%
[libx264 @ 0xb3ac3c700] i8c dc,h,v,p: 77% 13%  9%  1%
[libx264 @ 0xb3ac3c700] Weighted P-Frames: Y:0.0% UV:0.0%
[libx264 @ 0xb3ac3c700] ref P L0: 63.2%  2.2% 22.0%  7.3%  5.4%
[libx264 @ 0xb3ac3c700] ref B L0: 77.5% 18.2%  3.5%  0.8%
[libx264 @ 0xb3ac3c700] ref B L1: 93.7%  6.3%
[libx264 @ 0xb3ac3c700] kb/s:434.21
2026-03-10T14:31:04+00:00 webm cmd: /opt/homebrew/bin/ffmpeg -y -i '/Users/rllngr/Sites/Manuelle Gautrand/backend/storage/content/1_projects/1_residential/2_casa-lauza-artwork-shelter/sinusoidal.mp4' -c:v libvpx-vp9 -b:v 0 -crf 33 -vf "scale=1920:-2" -c:a libopus -b:a '64k' '/Users/rllngr/Sites/Manuelle Gautrand/backend/storage/content/1_projects/1_residential/2_casa-lauza-artwork-shelter/sinusoidal.tmp.webm' 2>&1 | code=0 | out=[out#0/webm @ 0xc07048180] Codec AVOption b:a (set bitrate (in bits/s)) has not been used for any stream. The most likely reason is either wrong type (e.g. a video option with no video streams) or that it is a private option of some decoder which was not actually used for any stream.
Stream mapping:
  Stream #0:0 -> #0:0 (h264 (native) -> vp9 (libvpx-vp9))
Press [q] to stop, [?] for help
[libvpx-vp9 @ 0xc06c3c700] v1.15.2
Output #0, webm, to '/Users/rllngr/Sites/Manuelle Gautrand/backend/storage/content/1_projects/1_residential/2_casa-lauza-artwork-shelter/sinusoidal.tmp.webm':
  Metadata:
    major_brand     : isom
    minor_version   : 512
    compatible_brands: isomiso2avc1mp41
    encoder         : Lavf62.3.100
  Stream #0:0(und): Video: vp9, yuv420p(tv, bt709, progressive), 1920x1280, q=2-31, 60 fps, 1k tbn (default)
    Metadata:
      encoder         : Lavc62.11.100 libvpx-vp9
      handler_name    : Core Media Video
      vendor_id       : [0][0][0][0]
    Side data:
      cpb: bitrate max/min/avg: 0/0/0 buffer size: 0 vbv_delay: N/A
frame=   21 fps=0.0 q=22.0 size=       1KiB time=00:00:00.35 bitrate=  14.7kbits/s speed=0.609x elapsed=0:00:00.57    frame=   43 fps= 37 q=31.0 size=       1KiB time=00:00:00.71 bitrate=   7.2kbits/s speed=0.623x elapsed=0:00:01.15    frame=   66 fps= 38 q=33.0 size=       1KiB time=00:00:01.10 bitrate=   4.7kbits/s speed=0.638x elapsed=0:00:01.72    frame=   89 fps= 39 q=22.0 size=       1KiB time=00:00:01.48 bitrate=   3.5kbits/s speed=0.645x elapsed=0:00:02.30    frame=  112 fps= 39 q=33.0 size=       1KiB time=00:00:01.86 bitrate=   2.7kbits/s speed=0.649x elapsed=0:00:02.87    frame=  134 fps= 39 q=33.0 size=     222KiB time=00:00:02.23 bitrate= 816.1kbits/s speed=0.647x elapsed=0:00:03.45    frame=  157 fps= 39 q=28.0 size=     222KiB time=00:00:02.61 bitrate= 696.5kbits/s speed=0.65x elapsed=0:00:04.02    frame=  180 fps= 39 q=33.0 size=     222KiB time=00:00:03.00 bitrate= 607.5kbits/s speed=0.652x elapsed=0:00:04.60    frame=  203 fps= 39 q=31.0 size=     222KiB time=00:00:03.38 bitrate= 538.7kbits/s speed=0.654x elapsed=0:00:05.17    frame=  226 fps= 39 q=33.0 size=     222KiB time=00:00:03.76 bitrate= 483.9kbits/s speed=0.655x elapsed=0:00:05.75    frame=  248 fps= 39 q=33.0 size=     222KiB time=00:00:04.13 bitrate= 440.9kbits/s speed=0.653x elapsed=0:00:06.32    frame=  271 fps= 39 q=31.0 size=     256KiB time=00:00:04.51 bitrate= 464.3kbits/s speed=0.655x elapsed=0:00:06.90    frame=  293 fps= 39 q=28.0 size=     256KiB time=00:00:04.88 bitrate= 429.5kbits/s speed=0.653x elapsed=0:00:07.47    frame=  316 fps= 39 q=33.0 size=     256KiB time=00:00:05.26 bitrate= 398.2kbits/s speed=0.654x elapsed=0:00:08.05    frame=  339 fps= 39 q=31.0 size=     256KiB time=00:00:05.65 bitrate= 371.2kbits/s speed=0.655x elapsed=0:00:08.62    frame=  362 fps= 39 q=33.0 size=     256KiB time=00:00:06.03 bitrate= 347.6kbits/s speed=0.656x elapsed=0:00:09.20    frame=  384 fps= 39 q=33.0 size=     256KiB time=00:00:06.40 bitrate= 327.7kbits/s speed=0.655x elapsed=0:00:09.77    frame=  408 fps= 39 q=33.0 size=     512KiB time=00:00:06.80 bitrate= 616.8kbits/s speed=0.657x elapsed=0:00:10.35    frame=  427 fps= 39 q=31.0 size=     512KiB time=00:00:07.11 bitrate= 589.4kbits/s speed=0.651x elapsed=0:00:10.92    [out#0/webm @ 0xc07048180] video:768KiB audio:0KiB subtitle:0KiB other streams:0KiB global headers:0KiB muxing overhead: 0.498569%
frame=  451 fps= 39 q=31.0 Lsize=     772KiB time=00:00:07.51 bitrate= 841.6kbits/s speed=0.657x elapsed=0:00:11.43
2026-03-10T14:31:04+00:00 poster cmd: /opt/homebrew/bin/ffmpeg -y -i '/Users/rllngr/Sites/Manuelle Gautrand/backend/storage/content/1_projects/1_residential/2_casa-lauza-artwork-shelter/sinusoidal.mp4' -ss 00:00:01.000 -vframes 1 -vf "scale=1920:-2" '/Users/rllngr/Sites/Manuelle Gautrand/backend/storage/content/1_projects/1_residential/2_casa-lauza-artwork-shelter/sinusoidal-poster.jpg' 2>&1 | code=0 | out=Stream mapping:
  Stream #0:0 -> #0:0 (h264 (native) -> mjpeg (native))
Press [q] to stop, [?] for help
Output #0, image2, to '/Users/rllngr/Sites/Manuelle Gautrand/backend/storage/content/1_projects/1_residential/2_casa-lauza-artwork-shelter/sinusoidal-poster.jpg':
  Metadata:
    major_brand     : isom
    minor_version   : 512
    compatible_brands: isomiso2avc1mp41
    encoder         : Lavf62.3.100
  Stream #0:0(und): Video: mjpeg, yuv420p(pc, bt709, progressive), 1920x1280, q=2-31, 200 kb/s, 60 fps, 60 tbn (default)
    Metadata:
      encoder         : Lavc62.11.100 mjpeg
      handler_name    : Core Media Video
      vendor_id       : [0][0][0][0]
    Side data:
      cpb: bitrate max/min/avg: 0/0/200000 buffer size: 0 vbv_delay: N/A
[image2 @ 0xb2501c780] The specified filename '/Users/rllngr/Sites/Manuelle Gautrand/backend/storage/content/1_projects/1_residential/2_casa-lauza-artwork-shelter/sinusoidal-poster.jpg' does not contain an image sequence pattern or a pattern is invalid.
[image2 @ 0xb2501c780] Use a pattern such as %03d for an image sequence or use the -update option (with -frames:v 1 if needed) to write a single image.
[out#0/image2 @ 0xb24c40180] video:30KiB audio:0KiB subtitle:0KiB other streams:0KiB global headers:0KiB muxing overhead: unknown
frame=    1 fps=0.0 q=6.6 Lsize=N/A time=00:00:00.01 bitrate=N/A speed=0.424x elapsed=0:00:00.03
2026-03-10T14:53:06+00:00 Deleted generated file: /Users/rllngr/Sites/Manuelle Gautrand/backend/storage/content/1_projects/1_residential/1_tirane-jardins/vagabond-compressed.mp4
2026-03-10T14:53:06+00:00 Deleted generated file: /Users/rllngr/Sites/Manuelle Gautrand/backend/storage/content/1_projects/1_residential/1_tirane-jardins/vagabond-poster.jpg
2026-03-10T14:53:17+00:00 Deleted generated file: /Users/rllngr/Sites/Manuelle Gautrand/backend/storage/content/1_projects/1_residential/1_tirane-jardins/pink_1-compressed.mp4
2026-03-10T14:53:17+00:00 Deleted generated file: /Users/rllngr/Sites/Manuelle Gautrand/backend/storage/content/1_projects/1_residential/1_tirane-jardins/pink_1-poster.jpg
2026-03-10T14:53:25+00:00 Deleted generated file: /Users/rllngr/Sites/Manuelle Gautrand/backend/storage/content/1_projects/1_residential/1_tirane-jardins/red_1-compressed.mp4
2026-03-10T14:53:25+00:00 Deleted generated file: /Users/rllngr/Sites/Manuelle Gautrand/backend/storage/content/1_projects/1_residential/1_tirane-jardins/red_1-poster.jpg
2026-03-10T14:53:31+00:00 Deleted generated file: /Users/rllngr/Sites/Manuelle Gautrand/backend/storage/content/1_projects/1_residential/1_tirane-jardins/blue_1-compressed.mp4
2026-03-10T14:53:31+00:00 Deleted generated file: /Users/rllngr/Sites/Manuelle Gautrand/backend/storage/content/1_projects/1_residential/1_tirane-jardins/blue_1-poster.jpg
2026-03-10T14:54:19+00:00 mp4: code=0 | [libx264 @ 0x75903d500] ref P L0: 75.6%  1.7% 14.1%  3.9%  4.6%  0.1% [libx264 @ 0x75903d500] ref B L0: 83.7% 12.5%  2.4%  1.4% [libx264 @ 0x75903d500] ref B L1: 96.0%  4.0% [libx264 @ 0x75903d500] kb/s:654.04 [aac @ 0x75943c700] Qavg: 65511.207
2026-03-10T14:54:31+00:00 webm: code=0 |       creation_time   : 2024-03-14T20:17:19.000000Z       handler_name    : #Mainconcept MP4 Sound Media Handler       vendor_id       : [0][0][0][0] frame=   10 fps=0.0 q=33.0 size=       1KiB time=00:00:00.33 bitrate=  22.2kbits/s speed=0.607x elapsed=0:00:00.54    frame=   24 fps= 21 q=33.0 size=       1KiB time=00:00:00.80 bitrate=   9.2kbits/s speed=0.712x elapsed=0:00:01.12    frame=   37 fps= 22 q=28.0 size=       1KiB time=00:00:01.23 bitrate=   6.0kbits/s speed=0.726x elapsed=0:00:01.69    frame=   53 fps= 23 q=28.0 size=       1KiB time=00:00:01.76 bitrate=   4.2kbits/s speed=0.777x elapsed=0:00:02.27    frame=   66 fps= 23 q=33.0 size=       1KiB time=00:00:02.20 bitrate=   3.4kbits/s speed=0.772x elapsed=0:00:02.84    frame=   80 fps= 23 q=33.0 size=       1KiB time=00:00:02.66 bitrate=   2.8kbits/s speed=0.779x elapsed=0:00:03.42    frame=   93 fps= 23 q=28.0 size=       1KiB time=00:00:03.10 bitrate=   2.4kbits/s speed=0.775x elapsed=0:00:03.99    frame=  107 fps= 23 q=31.0 size=       1KiB time=00:00:03.56 bitrate=   2.1kbits/s speed=0.78x elapsed=0:00:04.57    frame=  119 fps= 23 q=31.0 size=       1KiB time=00:00:03.96 bitrate=   1.9kbits/s speed=0.77x elapsed=0:00:05.14    frame=  132 fps= 23 q=33.0 size=     256KiB time=00:00:04.40 bitrate= 476.6kbits/s speed=0.769x elapsed=0:00:05.72    frame=  145 fps= 23 q=22.0 size=     256KiB time=00:00:04.83 bitrate= 433.9kbits/s speed=0.775x elapsed=0:00:06.23    frame=  157 fps= 23 q=28.0 size=     256KiB time=00:00:05.23 bitrate= 400.7kbits/s speed=0.768x elapsed=0:00:06.81    frame=  171 fps= 23 q=31.0 size=     256KiB time=00:00:05.70 bitrate= 367.9kbits/s speed=0.772x elapsed=0:00:07.38    frame=  183 fps= 23 q=31.0 size=     256KiB time=00:00:06.10 bitrate= 343.8kbits/s speed=0.766x elapsed=0:00:07.96    frame=  196 fps= 23 q=33.0 size=     256KiB time=00:00:06.53 bitrate= 321.0kbits/s speed=0.765x elapsed=0:00:08.53    frame=  209 fps= 23 q=22.0 size=     256KiB time=00:00:06.96 bitrate= 301.0kbits/s speed=0.764x elapsed=0:00:09.11    frame=  221 fps= 23 q=28.0 size=     256KiB time=00:00:07.36 bitrate= 284.7kbits/s speed=0.76x elapsed=0:00:09.68    frame=  238 fps= 23 q=33.0 size=     256KiB time=00:00:07.93 bitrate= 264.3kbits/s speed=0.773x elapsed=0:00:10.26    frame=  252 fps= 23 q=33.0 size=     256KiB time=00:00:08.40 bitrate= 249.7kbits/s speed=0.775x elapsed=0:00:10.83    frame=  270 fps= 24 q=33.0 size=     768KiB time=N/A bitrate=N/A speed=N/A elapsed=0:00:11.41    frame=  276 fps= 23 q=33.0 size=     768KiB time=N/A bitrate=N/A speed=N/A elapsed=0:00:11.98    [out#0/webm @ 0x81ec40300] video:810KiB audio:1KiB subtitle:0KiB other streams:0KiB global headers:0KiB muxing overhead: 0.731849% frame=  300 fps= 24 q=33.0 Lsize=     818KiB time=00:00:10.00 bitrate= 669.7kbits/s speed=0.812x elapsed=0:00:12.32
2026-03-10T14:54:31+00:00 poster: code=0 |       cpb: bitrate max/min/avg: 0/0/200000 buffer size: 0 vbv_delay: N/A [image2 @ 0xb82d74280] The specified filename '/Users/rllngr/Sites/Manuelle Gautrand/backend/storage/content/1_projects/1_residential/1_tirane-jardins/green_1-poster.jpg' does not contain an image sequence pattern or a pattern is invalid. [image2 @ 0xb82d74280] Use a pattern such as %03d for an image sequence or use the -update option (with -frames:v 1 if needed) to write a single image. [out#0/image2 @ 0xb83044300] video:48KiB audio:0KiB subtitle:0KiB other streams:0KiB global headers:0KiB muxing overhead: unknown frame=    1 fps=0.0 q=5.2 Lsize=N/A time=00:00:00.03 bitrate=N/A speed=1.03x elapsed=0:00:00.03
2026-03-10T15:02:51+00:00 mp4: code=0 | [libx264 @ 0x87ec41180] ref P L0: 69.9%  2.8% 19.4%  4.6%  3.3%  0.1%  0.0% [libx264 @ 0x87ec41180] ref B L0: 75.6% 19.8%  2.6%  2.0% [libx264 @ 0x87ec41180] ref B L1: 94.9%  5.1% [libx264 @ 0x87ec41180] kb/s:324.42 [aac @ 0x87ed7c380] Qavg: 65511.156
2026-03-10T15:03:02+00:00 webm: code=0 |       creation_time   : 2024-03-14T20:17:24.000000Z       handler_name    : #Mainconcept MP4 Sound Media Handler       vendor_id       : [0][0][0][0] frame=   12 fps=0.0 q=33.0 size=       1KiB time=00:00:00.40 bitrate=  18.5kbits/s speed=0.784x elapsed=0:00:00.51    frame=   26 fps= 24 q=33.0 size=       1KiB time=00:00:00.86 bitrate=   8.5kbits/s speed=0.799x elapsed=0:00:01.08    frame=   41 fps= 25 q=22.0 size=       1KiB time=00:00:01.36 bitrate=   5.4kbits/s speed=0.823x elapsed=0:00:01.66    frame=   57 fps= 26 q=22.0 size=       1KiB time=00:00:01.90 bitrate=   3.9kbits/s speed=0.851x elapsed=0:00:02.23    frame=   76 fps= 27 q=33.0 size=       1KiB time=00:00:02.53 bitrate=   2.9kbits/s speed=0.902x elapsed=0:00:02.80    frame=   95 fps= 28 q=31.0 size=       1KiB time=00:00:03.16 bitrate=   2.3kbits/s speed=0.936x elapsed=0:00:03.38    frame=  114 fps= 29 q=33.0 size=       1KiB time=00:00:03.80 bitrate=   1.9kbits/s speed=0.96x elapsed=0:00:03.95    frame=  132 fps= 29 q=33.0 size=     122KiB time=00:00:04.40 bitrate= 227.1kbits/s speed=0.971x elapsed=0:00:04.53    frame=  149 fps= 29 q=22.0 size=     122KiB time=00:00:04.96 bitrate= 201.2kbits/s speed=0.978x elapsed=0:00:05.07    frame=  165 fps= 29 q=28.0 size=     122KiB time=00:00:05.50 bitrate= 181.7kbits/s speed=0.973x elapsed=0:00:05.65    frame=  182 fps= 29 q=33.0 size=     122KiB time=00:00:06.06 bitrate= 164.7kbits/s speed=0.974x elapsed=0:00:06.22    frame=  198 fps= 29 q=33.0 size=     122KiB time=00:00:06.60 bitrate= 151.4kbits/s speed=0.97x elapsed=0:00:06.80    frame=  213 fps= 29 q=28.0 size=     122KiB time=00:00:07.10 bitrate= 140.7kbits/s speed=0.969x elapsed=0:00:07.32    frame=  229 fps= 29 q=22.0 size=     122KiB time=00:00:07.63 bitrate= 130.9kbits/s speed=0.966x elapsed=0:00:07.89    frame=  245 fps= 29 q=28.0 size=     122KiB time=00:00:08.16 bitrate= 122.4kbits/s speed=0.964x elapsed=0:00:08.47    frame=  262 fps= 29 q=33.0 size=     237KiB time=00:00:08.73 bitrate= 222.4kbits/s speed=0.965x elapsed=0:00:09.04    frame=  275 fps= 29 q=31.0 size=     237KiB time=N/A bitrate=N/A speed=N/A elapsed=0:00:09.62    [out#0/webm @ 0xa4b044300] video:250KiB audio:1KiB subtitle:0KiB other streams:0KiB global headers:0KiB muxing overhead: 2.355672% frame=  299 fps= 30 q=31.0 Lsize=     257KiB time=00:00:09.96 bitrate= 211.6kbits/s speed=0.99x elapsed=0:00:10.06
2026-03-10T15:03:02+00:00 poster: code=0 |       cpb: bitrate max/min/avg: 0/0/200000 buffer size: 0 vbv_delay: N/A [image2 @ 0x947017700] The specified filename '/Users/rllngr/Sites/Manuelle Gautrand/backend/public/video-cache/projects/residential/tirane-jardins/yellow_1-poster.jpg' does not contain an image sequence pattern or a pattern is invalid. [image2 @ 0x947017700] Use a pattern such as %03d for an image sequence or use the -update option (with -frames:v 1 if needed) to write a single image. [out#0/image2 @ 0x946c08780] video:47KiB audio:0KiB subtitle:0KiB other streams:0KiB global headers:0KiB muxing overhead: unknown frame=    1 fps=0.0 q=3.4 Lsize=N/A time=00:00:00.03 bitrate=N/A speed=1.08x elapsed=0:00:00.03
2026-03-10T15:05:22+00:00 Deleted generated file: /Users/rllngr/Sites/Manuelle Gautrand/backend/public/video-cache/projects/residential/tirane-jardins/yellow_1-compressed.mp4
2026-03-10T15:05:22+00:00 Deleted generated file: /Users/rllngr/Sites/Manuelle Gautrand/backend/public/video-cache/projects/residential/tirane-jardins/yellow_1-opt.webm
2026-03-10T15:05:22+00:00 Deleted generated file: /Users/rllngr/Sites/Manuelle Gautrand/backend/public/video-cache/projects/residential/tirane-jardins/yellow_1-poster.jpg
2026-03-10T15:05:55+00:00 mp4: code=0 | [libx264 @ 0xaaec3d500] ref P L0: 75.6%  1.7% 14.1%  3.9%  4.6%  0.1% [libx264 @ 0xaaec3d500] ref B L0: 83.7% 12.5%  2.4%  1.4% [libx264 @ 0xaaec3d500] ref B L1: 96.0%  4.0% [libx264 @ 0xaaec3d500] kb/s:654.04 [aac @ 0xaaed14700] Qavg: 65511.207
2026-03-10T15:06:07+00:00 webm: code=0 |       creation_time   : 2024-03-14T20:17:19.000000Z       handler_name    : #Mainconcept MP4 Sound Media Handler       vendor_id       : [0][0][0][0] frame=   12 fps=0.0 q=33.0 size=       1KiB time=00:00:00.40 bitrate=  18.5kbits/s speed=0.721x elapsed=0:00:00.55    frame=   25 fps= 22 q=22.0 size=       1KiB time=00:00:00.83 bitrate=   8.9kbits/s speed=0.738x elapsed=0:00:01.12    frame=   38 fps= 22 q=33.0 size=       1KiB time=00:00:01.26 bitrate=   5.8kbits/s speed=0.743x elapsed=0:00:01.70    frame=   54 fps= 24 q=33.0 size=       1KiB time=00:00:01.80 bitrate=   4.1kbits/s speed=0.79x elapsed=0:00:02.27    frame=   65 fps= 23 q=22.0 size=       1KiB time=00:00:02.16 bitrate=   3.4kbits/s speed=0.779x elapsed=0:00:02.78    frame=   79 fps= 24 q=31.0 size=       1KiB time=00:00:02.63 bitrate=   2.8kbits/s speed=0.784x elapsed=0:00:03.35    frame=   92 fps= 23 q=33.0 size=       1KiB time=00:00:03.06 bitrate=   2.4kbits/s speed=0.78x elapsed=0:00:03.93    frame=  106 fps= 24 q=33.0 size=       1KiB time=00:00:03.53 bitrate=   2.1kbits/s speed=0.784x elapsed=0:00:04.50    frame=  119 fps= 23 q=31.0 size=       1KiB time=00:00:03.96 bitrate=   1.9kbits/s speed=0.78x elapsed=0:00:05.08    frame=  132 fps= 23 q=33.0 size=     256KiB time=00:00:04.40 bitrate= 476.6kbits/s speed=0.778x elapsed=0:00:05.65    frame=  146 fps= 23 q=33.0 size=     256KiB time=00:00:04.86 bitrate= 430.9kbits/s speed=0.781x elapsed=0:00:06.23    frame=  158 fps= 23 q=33.0 size=     256KiB time=00:00:05.26 bitrate= 398.2kbits/s speed=0.774x elapsed=0:00:06.80    frame=  172 fps= 23 q=33.0 size=     256KiB time=00:00:05.73 bitrate= 365.8kbits/s speed=0.777x elapsed=0:00:07.38    frame=  182 fps= 23 q=33.0 size=     256KiB time=00:00:06.06 bitrate= 345.7kbits/s speed=0.769x elapsed=0:00:07.89    frame=  195 fps= 23 q=31.0 size=     256KiB time=00:00:06.50 bitrate= 322.6kbits/s speed=0.768x elapsed=0:00:08.46    frame=  209 fps= 23 q=22.0 size=     256KiB time=00:00:06.96 bitrate= 301.0kbits/s speed=0.771x elapsed=0:00:09.04    frame=  221 fps= 23 q=28.0 size=     256KiB time=00:00:07.36 bitrate= 284.7kbits/s speed=0.766x elapsed=0:00:09.61    frame=  238 fps= 23 q=33.0 size=     256KiB time=00:00:07.93 bitrate= 264.3kbits/s speed=0.778x elapsed=0:00:10.19    frame=  252 fps= 23 q=33.0 size=     256KiB time=00:00:08.40 bitrate= 249.7kbits/s speed=0.78x elapsed=0:00:10.76    frame=  269 fps= 24 q=28.0 size=     768KiB time=N/A bitrate=N/A speed=N/A elapsed=0:00:11.34    frame=  276 fps= 23 q=33.0 size=     768KiB time=N/A bitrate=N/A speed=N/A elapsed=0:00:11.91    [out#0/webm @ 0xbfac40300] video:810KiB audio:1KiB subtitle:0KiB other streams:0KiB global headers:0KiB muxing overhead: 0.731849% frame=  300 fps= 24 q=33.0 Lsize=     818KiB time=00:00:10.00 bitrate= 669.7kbits/s speed=0.815x elapsed=0:00:12.26
2026-03-10T15:06:07+00:00 poster: code=0 |       cpb: bitrate max/min/avg: 0/0/200000 buffer size: 0 vbv_delay: N/A [image2 @ 0x874c98280] The specified filename '/Users/rllngr/Sites/Manuelle Gautrand/backend/public/video-cache/projects/residential/tirane-jardins/green_1-poster.jpg' does not contain an image sequence pattern or a pattern is invalid. [image2 @ 0x874c98280] Use a pattern such as %03d for an image sequence or use the -update option (with -frames:v 1 if needed) to write a single image. [out#0/image2 @ 0x875020300] video:48KiB audio:0KiB subtitle:0KiB other streams:0KiB global headers:0KiB muxing overhead: unknown frame=    1 fps=0.0 q=5.2 Lsize=N/A time=00:00:00.03 bitrate=N/A speed=1.09x elapsed=0:00:00.03
2026-03-10T15:23:44+00:00 mp4: code=0 | [libx264 @ 0x7c7039180] ref P L0: 85.7%  2.1%  8.2%  2.4%  1.3%  0.4% [libx264 @ 0x7c7039180] ref B L0: 82.4% 11.3%  4.2%  2.1% [libx264 @ 0x7c7039180] ref B L1: 93.9%  6.1% [libx264 @ 0x7c7039180] kb/s:422.06 [aac @ 0x7c7184380] Qavg: 65511.207
2026-03-10T15:23:54+00:00 webm: code=0 |       creation_time   : 2024-03-14T20:17:17.000000Z       handler_name    : #Mainconcept MP4 Sound Media Handler       vendor_id       : [0][0][0][0] frame=   12 fps=0.0 q=33.0 size=       1KiB time=00:00:00.40 bitrate=  18.5kbits/s speed=0.696x elapsed=0:00:00.57    frame=   26 fps= 23 q=33.0 size=       1KiB time=00:00:00.86 bitrate=   8.5kbits/s speed=0.754x elapsed=0:00:01.15    frame=   39 fps= 23 q=31.0 size=       1KiB time=00:00:01.30 bitrate=   5.7kbits/s speed=0.754x elapsed=0:00:01.72    frame=   60 fps= 26 q=33.0 size=       1KiB time=00:00:02.00 bitrate=   3.7kbits/s speed=0.87x elapsed=0:00:02.30    frame=   79 fps= 27 q=31.0 size=       1KiB time=00:00:02.63 bitrate=   2.8kbits/s speed=0.916x elapsed=0:00:02.87    frame=   97 fps= 28 q=22.0 size=       1KiB time=00:00:03.23 bitrate=   2.3kbits/s speed=0.937x elapsed=0:00:03.45    frame=  114 fps= 28 q=33.0 size=       1KiB time=00:00:03.80 bitrate=   1.9kbits/s speed=0.944x elapsed=0:00:04.02    frame=  131 fps= 28 q=31.0 size=     208KiB time=00:00:04.36 bitrate= 389.7kbits/s speed=0.949x elapsed=0:00:04.60    frame=  148 fps= 29 q=33.0 size=     208KiB time=00:00:04.93 bitrate= 344.9kbits/s speed=0.953x elapsed=0:00:05.17    frame=  165 fps= 29 q=28.0 size=     208KiB time=00:00:05.50 bitrate= 309.4kbits/s speed=0.956x elapsed=0:00:05.75    frame=  181 fps= 29 q=28.0 size=     208KiB time=00:00:06.03 bitrate= 282.1kbits/s speed=0.954x elapsed=0:00:06.32    frame=  197 fps= 29 q=28.0 size=     208KiB time=00:00:06.56 bitrate= 259.1kbits/s speed=0.952x elapsed=0:00:06.90    frame=  216 fps= 29 q=33.0 size=     208KiB time=00:00:07.20 bitrate= 236.3kbits/s speed=0.963x elapsed=0:00:07.47    frame=  236 fps= 29 q=33.0 size=     208KiB time=00:00:07.86 bitrate= 216.3kbits/s speed=0.977x elapsed=0:00:08.05    frame=  250 fps= 29 q=33.0 size=     208KiB time=00:00:08.33 bitrate= 204.2kbits/s speed=0.966x elapsed=0:00:08.62    frame=  268 fps= 29 q=33.0 size=     256KiB time=N/A bitrate=N/A speed=N/A elapsed=0:00:09.20    frame=  276 fps= 28 q=33.0 size=     256KiB time=N/A bitrate=N/A speed=N/A elapsed=0:00:09.70    [out#0/webm @ 0x712c08780] video:414KiB audio:1KiB subtitle:0KiB other streams:0KiB global headers:0KiB muxing overhead: 1.426017% frame=  300 fps= 29 q=33.0 Lsize=     422KiB time=00:00:10.00 bitrate= 345.3kbits/s speed=0.981x elapsed=0:00:10.19
2026-03-10T15:23:54+00:00 poster: code=0 |       cpb: bitrate max/min/avg: 0/0/200000 buffer size: 0 vbv_delay: N/A [image2 @ 0xbe501f700] The specified filename '/Users/rllngr/Sites/Manuelle Gautrand/backend/storage/content/1_projects/1_residential/1_tirane-jardins/blue_1-poster.jpg' does not contain an image sequence pattern or a pattern is invalid. [image2 @ 0xbe501f700] Use a pattern such as %03d for an image sequence or use the -update option (with -frames:v 1 if needed) to write a single image. [out#0/image2 @ 0xbe4c40300] video:30KiB audio:0KiB subtitle:0KiB other streams:0KiB global headers:0KiB muxing overhead: unknown frame=    1 fps=0.0 q=2.0 Lsize=N/A time=00:00:00.03 bitrate=N/A speed=1.77x elapsed=0:00:00.01
2026-03-10T15:27:52+00:00 Deleted cache file: /Users/rllngr/Sites/Manuelle Gautrand/backend/public/video-cache/projects/residential/tirane-jardins/blue_1-compressed.mp4
2026-03-10T15:27:52+00:00 Deleted cache file: /Users/rllngr/Sites/Manuelle Gautrand/backend/public/video-cache/projects/residential/tirane-jardins/blue_1-opt.webm
2026-03-10T15:28:02+00:00 mp4: code=0 | [libx264 @ 0x96ec41180] ref P L0: 79.5%  3.3% 12.5%  2.5%  2.0%  0.1% [libx264 @ 0x96ec41180] ref B L0: 78.8% 16.3%  2.2%  2.7% [libx264 @ 0x96ec41180] ref B L1: 94.0%  6.0% [libx264 @ 0x96ec41180] kb/s:314.94 [aac @ 0x96ed38380] Qavg: 65511.207
2026-03-10T15:28:12+00:00 webm: code=0 |       creation_time   : 2024-03-14T20:17:20.000000Z       handler_name    : #Mainconcept MP4 Sound Media Handler       vendor_id       : [0][0][0][0] frame=   13 fps=0.0 q=28.0 size=       1KiB time=00:00:00.43 bitrate=  17.1kbits/s speed=0.754x elapsed=0:00:00.57    frame=   26 fps= 23 q=33.0 size=       1KiB time=00:00:00.86 bitrate=   8.5kbits/s speed=0.754x elapsed=0:00:01.15    frame=   40 fps= 23 q=33.0 size=       1KiB time=00:00:01.33 bitrate=   5.6kbits/s speed=0.773x elapsed=0:00:01.72    frame=   62 fps= 27 q=33.0 size=       1KiB time=00:00:02.06 bitrate=   3.6kbits/s speed=0.899x elapsed=0:00:02.30    frame=   84 fps= 29 q=33.0 size=       1KiB time=00:00:02.80 bitrate=   2.6kbits/s speed=0.974x elapsed=0:00:02.87    frame=  102 fps= 30 q=33.0 size=       1KiB time=00:00:03.40 bitrate=   2.2kbits/s speed=0.985x elapsed=0:00:03.45    frame=  121 fps= 30 q=22.0 size=       1KiB time=00:00:04.03 bitrate=   1.8kbits/s speed=   1x elapsed=0:00:04.02    frame=  141 fps= 31 q=28.0 size=     157KiB time=00:00:04.70 bitrate= 274.5kbits/s speed=1.02x elapsed=0:00:04.60    frame=  158 fps= 31 q=33.0 size=     157KiB time=00:00:05.26 bitrate= 244.9kbits/s speed=1.02x elapsed=0:00:05.17    frame=  175 fps= 30 q=31.0 size=     157KiB time=00:00:05.83 bitrate= 221.1kbits/s speed=1.01x elapsed=0:00:05.75    frame=  193 fps= 31 q=22.0 size=     157KiB time=00:00:06.43 bitrate= 200.5kbits/s speed=1.02x elapsed=0:00:06.32    frame=  209 fps= 30 q=22.0 size=     157KiB time=00:00:06.96 bitrate= 185.2kbits/s speed=1.01x elapsed=0:00:06.90    frame=  227 fps= 30 q=31.0 size=     157KiB time=00:00:07.56 bitrate= 170.5kbits/s speed=1.01x elapsed=0:00:07.47    frame=  242 fps= 30 q=33.0 size=     157KiB time=00:00:08.06 bitrate= 159.9kbits/s speed=   1x elapsed=0:00:08.05    frame=  256 fps= 30 q=33.0 size=     157KiB time=00:00:08.53 bitrate= 151.2kbits/s speed=0.989x elapsed=0:00:08.62    frame=  276 fps= 30 q=33.0 size=     256KiB time=N/A bitrate=N/A speed=N/A elapsed=0:00:09.20    frame=  276 fps= 28 q=33.0 size=     256KiB time=N/A bitrate=N/A speed=N/A elapsed=0:00:09.77    [out#0/webm @ 0x7db040300] video:357KiB audio:1KiB subtitle:0KiB other streams:0KiB global headers:0KiB muxing overhead: 1.637670% frame=  300 fps= 30 q=33.0 Lsize=     364KiB time=00:00:10.00 bitrate= 298.6kbits/s speed=1.01x elapsed=0:00:09.91
2026-03-10T15:28:12+00:00 poster: code=0 |       cpb: bitrate max/min/avg: 0/0/200000 buffer size: 0 vbv_delay: N/A [image2 @ 0xcbec1f700] The specified filename '/Users/rllngr/Sites/Manuelle Gautrand/backend/public/video-cache/projects/residential/tirane-jardins/pink_1-poster.jpg' does not contain an image sequence pattern or a pattern is invalid. [image2 @ 0xcbec1f700] Use a pattern such as %03d for an image sequence or use the -update option (with -frames:v 1 if needed) to write a single image. [out#0/image2 @ 0xcbf040300] video:35KiB audio:0KiB subtitle:0KiB other streams:0KiB global headers:0KiB muxing overhead: unknown frame=    1 fps=0.0 q=2.0 Lsize=N/A time=00:00:00.03 bitrate=N/A speed=1.91x elapsed=0:00:00.01
2026-03-10T15:34:38+00:00 Deleted cache file: /Users/rllngr/Sites/Manuelle Gautrand/backend/public/video-cache/projects/residential/tirane-jardins/pink_1-compressed.mp4
2026-03-10T15:34:38+00:00 Deleted cache file: /Users/rllngr/Sites/Manuelle Gautrand/backend/public/video-cache/projects/residential/tirane-jardins/pink_1-opt.webm
2026-03-10T15:34:41+00:00 Deleted cache file: /Users/rllngr/Sites/Manuelle Gautrand/backend/public/video-cache/projects/residential/tirane-jardins/green_1-compressed.mp4
2026-03-10T15:34:41+00:00 Deleted cache file: /Users/rllngr/Sites/Manuelle Gautrand/backend/public/video-cache/projects/residential/tirane-jardins/green_1-opt.webm
2026-03-10T15:34:48+00:00 mp4: code=0 | [libx264 @ 0xa94c38700] Weighted P-Frames: Y:0.0% UV:0.0% [libx264 @ 0xa94c38700] ref P L0: 63.2%  2.2% 22.0%  7.3%  5.4% [libx264 @ 0xa94c38700] ref B L0: 77.5% 18.2%  3.5%  0.8% [libx264 @ 0xa94c38700] ref B L1: 93.7%  6.3% [libx264 @ 0xa94c38700] kb/s:434.21
2026-03-10T15:35:00+00:00 webm: code=0 |       vendor_id       : [0][0][0][0]     Side data:       cpb: bitrate max/min/avg: 0/0/0 buffer size: 0 vbv_delay: N/A frame=   21 fps=0.0 q=22.0 size=       1KiB time=00:00:00.35 bitrate=  14.7kbits/s speed=0.609x elapsed=0:00:00.57    frame=   42 fps= 37 q=33.0 size=       1KiB time=00:00:00.70 bitrate=   7.3kbits/s speed=0.621x elapsed=0:00:01.12    frame=   64 fps= 38 q=33.0 size=       1KiB time=00:00:01.06 bitrate=   4.8kbits/s speed=0.627x elapsed=0:00:01.70    frame=   87 fps= 38 q=31.0 size=       1KiB time=00:00:01.45 bitrate=   3.5kbits/s speed=0.637x elapsed=0:00:02.27    frame=  110 fps= 39 q=33.0 size=       1KiB time=00:00:01.83 bitrate=   2.8kbits/s speed=0.643x elapsed=0:00:02.85    frame=  131 fps= 38 q=31.0 size=     222KiB time=00:00:02.18 bitrate= 834.8kbits/s speed=0.637x elapsed=0:00:03.42    frame=  154 fps= 38 q=33.0 size=     222KiB time=00:00:02.56 bitrate= 710.1kbits/s speed=0.641x elapsed=0:00:04.00    frame=  177 fps= 39 q=22.0 size=     222KiB time=00:00:02.95 bitrate= 617.8kbits/s speed=0.645x elapsed=0:00:04.57    frame=  199 fps= 39 q=22.0 size=     222KiB time=00:00:03.31 bitrate= 549.5kbits/s speed=0.644x elapsed=0:00:05.14    frame=  221 fps= 39 q=28.0 size=     222KiB time=00:00:03.68 bitrate= 494.8kbits/s speed=0.643x elapsed=0:00:05.72    frame=  244 fps= 39 q=33.0 size=     222KiB time=00:00:04.06 bitrate= 448.2kbits/s speed=0.646x elapsed=0:00:06.29    frame=  266 fps= 39 q=33.0 size=     256KiB time=00:00:04.43 bitrate= 473.0kbits/s speed=0.645x elapsed=0:00:06.87    frame=  288 fps= 39 q=33.0 size=     256KiB time=00:00:04.80 bitrate= 436.9kbits/s speed=0.644x elapsed=0:00:07.44    frame=  310 fps= 39 q=33.0 size=     256KiB time=00:00:05.16 bitrate= 405.9kbits/s speed=0.644x elapsed=0:00:08.02    frame=  332 fps= 39 q=33.0 size=     256KiB time=00:00:05.53 bitrate= 379.0kbits/s speed=0.643x elapsed=0:00:08.59    frame=  353 fps= 39 q=22.0 size=     256KiB time=00:00:05.88 bitrate= 356.5kbits/s speed=0.645x elapsed=0:00:09.12    frame=  376 fps= 39 q=33.0 size=     256KiB time=00:00:06.26 bitrate= 334.7kbits/s speed=0.646x elapsed=0:00:09.70    frame=  399 fps= 39 q=31.0 size=     512KiB time=00:00:06.65 bitrate= 630.7kbits/s speed=0.647x elapsed=0:00:10.27    frame=  421 fps= 39 q=28.0 size=     512KiB time=00:00:07.01 bitrate= 597.8kbits/s speed=0.647x elapsed=0:00:10.85    frame=  427 fps= 37 q=31.0 size=     512KiB time=00:00:07.11 bitrate= 589.4kbits/s speed=0.623x elapsed=0:00:11.42    [out#0/webm @ 0xbacc40180] video:768KiB audio:0KiB subtitle:0KiB other streams:0KiB global headers:0KiB muxing overhead: 0.498569% frame=  451 fps= 39 q=31.0 Lsize=     772KiB time=00:00:07.51 bitrate= 841.6kbits/s speed=0.648x elapsed=0:00:11.59
2026-03-10T15:35:00+00:00 poster: code=0 |       cpb: bitrate max/min/avg: 0/0/200000 buffer size: 0 vbv_delay: N/A [image2 @ 0x8e101c780] The specified filename '/Users/rllngr/Sites/Manuelle Gautrand/backend/storage/content/1_projects/1_residential/1_tirane-jardins/sinusoidal-poster.jpg' does not contain an image sequence pattern or a pattern is invalid. [image2 @ 0x8e101c780] Use a pattern such as %03d for an image sequence or use the -update option (with -frames:v 1 if needed) to write a single image. [out#0/image2 @ 0x8e0c40180] video:36KiB audio:0KiB subtitle:0KiB other streams:0KiB global headers:0KiB muxing overhead: unknown frame=    1 fps=0.0 q=2.0 Lsize=N/A time=00:00:00.01 bitrate=N/A speed=0.563x elapsed=0:00:00.02
2026-03-10T15:41:33+00:00 Deleted poster: /Users/rllngr/Sites/Manuelle Gautrand/backend/storage/content/1_projects/1_residential/1_tirane-jardins/sinusoidal-poster.jpg
2026-03-10T15:41:33+00:00 Deleted cache file: /Users/rllngr/Sites/Manuelle Gautrand/backend/public/video-cache/projects/residential/tirane-jardins/sinusoidal-compressed.mp4
2026-03-10T15:41:33+00:00 Deleted cache file: /Users/rllngr/Sites/Manuelle Gautrand/backend/public/video-cache/projects/residential/tirane-jardins/sinusoidal-opt.webm
2026-03-10T15:41:45+00:00 mp4: code=0 | [libx264 @ 0x756829180] ref P L0: 67.9%  2.9% 19.2%  6.2%  3.7%  0.1% [libx264 @ 0x756829180] ref B L0: 87.7%  8.9%  2.3%  1.2% [libx264 @ 0x756829180] ref B L1: 96.8%  3.2% [libx264 @ 0x756829180] kb/s:1079.23 [aac @ 0x756920380] Qavg: 65511.207
2026-03-10T15:41:55+00:00 webm: code=0 |       creation_time   : 2024-03-14T20:17:09.000000Z       handler_name    : #Mainconcept MP4 Sound Media Handler       vendor_id       : [0][0][0][0] frame=   11 fps=0.0 q=22.0 size=       1KiB time=00:00:00.36 bitrate=  20.2kbits/s speed=0.715x elapsed=0:00:00.51    frame=   25 fps= 23 q=22.0 size=       1KiB time=00:00:00.83 bitrate=   8.9kbits/s speed=0.766x elapsed=0:00:01.08    frame=   39 fps= 23 q=31.0 size=       1KiB time=00:00:01.30 bitrate=   5.7kbits/s speed=0.782x elapsed=0:00:01.66    frame=   56 fps= 25 q=33.0 size=       1KiB time=00:00:01.86 bitrate=   4.0kbits/s speed=0.834x elapsed=0:00:02.23    frame=   75 fps= 27 q=31.0 size=       1KiB time=00:00:02.50 bitrate=   3.0kbits/s speed=0.889x elapsed=0:00:02.81    frame=   91 fps= 27 q=31.0 size=       1KiB time=00:00:03.03 bitrate=   2.4kbits/s speed=0.908x elapsed=0:00:03.34    frame=  108 fps= 28 q=33.0 size=       1KiB time=00:00:03.60 bitrate=   2.1kbits/s speed=0.919x elapsed=0:00:03.91    frame=  125 fps= 28 q=28.0 size=       1KiB time=00:00:04.16 bitrate=   1.8kbits/s speed=0.936x elapsed=0:00:04.45    frame=  142 fps= 28 q=33.0 size=     256KiB time=00:00:04.73 bitrate= 443.1kbits/s speed=0.941x elapsed=0:00:05.02    frame=  158 fps= 28 q=33.0 size=     256KiB time=00:00:05.26 bitrate= 398.2kbits/s speed=0.94x elapsed=0:00:05.60    frame=  176 fps= 28 q=33.0 size=     256KiB time=00:00:05.86 bitrate= 357.5kbits/s speed=0.95x elapsed=0:00:06.17    frame=  193 fps= 29 q=22.0 size=     256KiB time=00:00:06.43 bitrate= 326.0kbits/s speed=0.953x elapsed=0:00:06.75    frame=  210 fps= 29 q=33.0 size=     256KiB time=00:00:07.00 bitrate= 299.6kbits/s speed=0.955x elapsed=0:00:07.32    frame=  226 fps= 29 q=33.0 size=     256KiB time=00:00:07.53 bitrate= 278.4kbits/s speed=0.953x elapsed=0:00:07.90    frame=  240 fps= 28 q=33.0 size=     256KiB time=00:00:08.00 bitrate= 262.1kbits/s speed=0.944x elapsed=0:00:08.47    frame=  256 fps= 28 q=33.0 size=     256KiB time=00:00:08.53 bitrate= 245.8kbits/s speed=0.943x elapsed=0:00:09.05    frame=  274 fps= 28 q=33.0 size=     512KiB time=N/A bitrate=N/A speed=N/A elapsed=0:00:09.62    frame=  276 fps= 27 q=33.0 size=     512KiB time=N/A bitrate=N/A speed=N/A elapsed=0:00:10.20    [out#0/webm @ 0x95f044300] video:541KiB audio:1KiB subtitle:0KiB other streams:0KiB global headers:0KiB muxing overhead: 1.094549% frame=  300 fps= 29 q=33.0 Lsize=     548KiB time=00:00:10.00 bitrate= 449.2kbits/s speed=0.961x elapsed=0:00:10.40
2026-03-10T15:41:55+00:00 poster: code=0 |       cpb: bitrate max/min/avg: 0/0/200000 buffer size: 0 vbv_delay: N/A [image2 @ 0x8450d8280] The specified filename '/Users/rllngr/Sites/Manuelle Gautrand/backend/storage/content/1_projects/1_residential/1_tirane-jardins/dark-blue_1-poster.jpg' does not contain an image sequence pattern or a pattern is invalid. [image2 @ 0x8450d8280] Use a pattern such as %03d for an image sequence or use the -update option (with -frames:v 1 if needed) to write a single image. [out#0/image2 @ 0x844c08780] video:32KiB audio:0KiB subtitle:0KiB other streams:0KiB global headers:0KiB muxing overhead: unknown frame=    1 fps=0.0 q=2.0 Lsize=N/A time=00:00:00.03 bitrate=N/A speed=1.78x elapsed=0:00:00.01
2026-03-10T15:44:35+00:00 Deleted cache file: /Users/rllngr/Sites/Manuelle Gautrand/backend/public/video-cache/projects/residential/tirane-jardins/dark-blue_1-compressed.mp4
2026-03-10T15:44:35+00:00 Deleted cache file: /Users/rllngr/Sites/Manuelle Gautrand/backend/public/video-cache/projects/residential/tirane-jardins/dark-blue_1-opt.webm
2026-03-10T15:44:46+00:00 mp4: code=0 | [libx264 @ 0xc12c3d500] ref P L0: 81.3%  3.0%  9.9%  3.3%  2.2%  0.4% [libx264 @ 0xc12c3d500] ref B L0: 81.4% 14.4%  2.0%  2.2% [libx264 @ 0xc12c3d500] ref B L1: 94.1%  5.9% [libx264 @ 0xc12c3d500] kb/s:376.23 [aac @ 0xc12ddc700] Qavg: 65511.207
2026-03-10T15:44:56+00:00 webm: code=0 |       creation_time   : 2024-03-14T20:17:22.000000Z       handler_name    : #Mainconcept MP4 Sound Media Handler       vendor_id       : [0][0][0][0] frame=   11 fps=0.0 q=22.0 size=       1KiB time=00:00:00.36 bitrate=  20.2kbits/s speed=0.638x elapsed=0:00:00.57    frame=   24 fps= 21 q=33.0 size=       1KiB time=00:00:00.80 bitrate=   9.2kbits/s speed=0.696x elapsed=0:00:01.15    frame=   35 fps= 21 q=31.0 size=       1KiB time=00:00:01.16 bitrate=   6.3kbits/s speed=0.684x elapsed=0:00:01.70    frame=   53 fps= 24 q=28.0 size=       1KiB time=00:00:01.76 bitrate=   4.2kbits/s speed=0.795x elapsed=0:00:02.22    frame=   72 fps= 26 q=33.0 size=       1KiB time=00:00:02.40 bitrate=   3.1kbits/s speed=0.858x elapsed=0:00:02.79    frame=   89 fps= 26 q=22.0 size=       1KiB time=00:00:02.96 bitrate=   2.5kbits/s speed=0.88x elapsed=0:00:03.37    frame=  107 fps= 27 q=31.0 size=       1KiB time=00:00:03.56 bitrate=   2.1kbits/s speed=0.903x elapsed=0:00:03.94    frame=  126 fps= 28 q=33.0 size=       1KiB time=00:00:04.20 bitrate=   1.8kbits/s speed=0.933x elapsed=0:00:04.50    frame=  143 fps= 28 q=31.0 size=     216KiB time=00:00:04.76 bitrate= 371.4kbits/s speed=0.939x elapsed=0:00:05.07    frame=  157 fps= 28 q=28.0 size=     216KiB time=00:00:05.23 bitrate= 338.3kbits/s speed=0.934x elapsed=0:00:05.60    frame=  171 fps= 28 q=31.0 size=     216KiB time=00:00:05.70 bitrate= 310.6kbits/s speed=0.923x elapsed=0:00:06.17    frame=  188 fps= 28 q=33.0 size=     216KiB time=00:00:06.26 bitrate= 282.5kbits/s speed=0.928x elapsed=0:00:06.75    frame=  207 fps= 28 q=31.0 size=     216KiB time=00:00:06.90 bitrate= 256.6kbits/s speed=0.942x elapsed=0:00:07.32    frame=  224 fps= 28 q=33.0 size=     216KiB time=00:00:07.46 bitrate= 237.1kbits/s speed=0.945x elapsed=0:00:07.90    frame=  240 fps= 28 q=33.0 size=     216KiB time=00:00:08.00 bitrate= 221.3kbits/s speed=0.944x elapsed=0:00:08.47    frame=  256 fps= 28 q=33.0 size=     216KiB time=00:00:08.53 bitrate= 207.5kbits/s speed=0.943x elapsed=0:00:09.05    frame=  272 fps= 28 q=33.0 size=     256KiB time=N/A bitrate=N/A speed=N/A elapsed=0:00:09.62    frame=  276 fps= 27 q=33.0 size=     256KiB time=N/A bitrate=N/A speed=N/A elapsed=0:00:10.20    [out#0/webm @ 0x752c08780] video:471KiB audio:1KiB subtitle:0KiB other streams:0KiB global headers:0KiB muxing overhead: 1.251724% frame=  300 fps= 29 q=33.0 Lsize=     478KiB time=00:00:10.00 bitrate= 391.7kbits/s speed=0.956x elapsed=0:00:10.46
2026-03-10T15:44:56+00:00 poster: code=0 |       cpb: bitrate max/min/avg: 0/0/200000 buffer size: 0 vbv_delay: N/A [image2 @ 0xbc2c1b700] The specified filename '/Users/rllngr/Sites/Manuelle Gautrand/backend/public/video-cache/projects/residential/tirane-jardins/red-poster.jpg' does not contain an image sequence pattern or a pattern is invalid. [image2 @ 0xbc2c1b700] Use a pattern such as %03d for an image sequence or use the -update option (with -frames:v 1 if needed) to write a single image. [out#0/image2 @ 0xbc3044300] video:36KiB audio:0KiB subtitle:0KiB other streams:0KiB global headers:0KiB muxing overhead: unknown frame=    1 fps=0.0 q=2.0 Lsize=N/A time=00:00:00.03 bitrate=N/A speed=1.84x elapsed=0:00:00.01
